<?xml version="1.0" encoding="UTF-8"?>
<!DOCTYPE svg PUBLIC "-//W3C//DTD SVG 1.1//EN" "http://www.w3.org/Graphics/SVG/1.1/DTD/svg11.dtd">
<!-- Creator: CorelDRAW 2017 -->
<svg xmlns="http://www.w3.org/2000/svg" xml:space="preserve" width="210mm" height="297mm" version="1.1" style="shape-rendering:geometricPrecision; text-rendering:geometricPrecision; image-rendering:optimizeQuality; fill-rule:evenodd; clip-rule:evenodd"
viewBox="0 0 21000 29700"
 xmlns:xlink="http://www.w3.org/1999/xlink"
 enable-background="new 0 0 1140 360">
 <defs>
  <style type="text/css">
   <![CDATA[
    .fil0 {fill:white}
   ]]>
  </style>
   <clipPath id="id0">
    <rect x="-37.42" y="10629.4" width="21000" height="6631.6"/>
   </clipPath>
 </defs>
 <g id="Слой_x0020_1">
  <metadata id="CorelCorpID_0Corel-Layer"/>
  <path class="fil0" d="M3007.97 13643.68l-73.61 0 -60.16 -159.1 -240.63 0 -56.59 159.1 -74.02 0 217.66 -567.53 68.86 -0.01 218.49 567.53 0 0.01zm-155.53 -218.86l-89.05 -241.81c-2.91,-7.92 -5.8,-20.58 -8.71,-38l-1.58 -0.01c-2.65,16.1 -5.67,28.77 -9.1,38l-88.26 241.81 196.7 0.01zm201.18 195.91l0 -78.36c8.97,7.92 19.71,15.03 32.26,21.37 12.53,6.34 25.72,11.68 39.57,16.03 13.85,4.35 27.76,7.72 41.76,10.09 13.98,2.38 26.91,3.56 38.78,3.56 40.89,0 71.44,-7.59 91.63,-22.75 20.19,-15.16 30.28,-37.01 30.28,-65.51 0,-15.31 -3.37,-28.63 -10.09,-39.97 -6.72,-11.34 -16.03,-21.7 -27.91,-31.08 -11.88,-9.38 -25.92,-18.33 -42.15,-26.91 -16.23,-8.58 -33.71,-17.61 -52.44,-27.12 -19.78,-10.02 -38.26,-20.19 -55.41,-30.47 -17.15,-10.3 -32.05,-21.64 -44.73,-34.04 -12.68,-12.4 -22.64,-26.45 -29.88,-42.15 -7.26,-15.71 -10.89,-34.12 -10.89,-55.21 0,-25.84 5.67,-48.36 17.02,-67.48 11.35,-19.12 26.25,-34.91 44.73,-47.29 18.46,-12.4 39.51,-21.64 63.13,-27.71 23.62,-6.06 47.69,-9.1 72.23,-9.1 55.93,0 96.69,6.72 122.3,20.19l0 74.81c-33.51,-23.23 -76.52,-34.83 -129.02,-34.83 -14.52,0 -29.03,1.51 -43.53,4.55 -14.52,3.04 -27.45,7.99 -38.78,14.85 -11.35,6.85 -20.58,15.71 -27.71,26.51 -7.13,10.8 -10.68,24.02 -10.68,39.57 0,14.52 2.69,27.04 8.11,37.6 5.4,10.56 13.39,20.19 23.95,28.88 10.56,8.71 23.41,17.15 38.59,25.33 15.16,8.18 32.64,17.15 52.44,26.91 20.32,10.02 39.57,20.58 57.79,31.67 18.22,11.09 34.15,23.36 47.89,36.81 13.72,13.45 24.59,28.37 32.64,44.73 8.05,16.36 12.07,35.09 12.07,56.2 0,27.98 -5.47,51.65 -16.43,71.03 -10.96,19.4 -25.72,35.15 -44.32,47.29 -18.6,12.14 -40.05,20.91 -64.31,26.32 -24.28,5.4 -49.87,8.11 -76.78,8.11 -8.97,0 -20.06,-0.74 -33.25,-2.17 -13.19,-1.46 -26.66,-3.56 -40.36,-6.34 -13.72,-2.76 -26.71,-6.21 -38.98,-10.3 -12.27,-4.09 -22.14,-8.6 -29.51,-13.61l-0.01 -0.01zm512.25 -191.56l0 214.51 -66.48 0 0 -567.53 155.94 -0.01c60.68,0 107.71,14.77 141.09,44.32 33.38,29.55 50.07,71.23 50.07,125.06 0,53.83 -18.53,97.87 -55.61,132.19 -37.08,34.3 -87.13,51.45 -150.19,51.45l-74.82 0.01zm0 -292.86l0 232.71 69.65 0c45.91,0 80.94,-10.48 105.07,-31.46 24.13,-20.98 36.22,-50.58 36.22,-88.84 0,-74.92 -44.32,-112.41 -132.98,-112.41l-77.96 0zm389.96 516.06c-12.14,0 -22.49,-4.35 -31.08,-13.06 -8.58,-8.71 -12.86,-19.12 -12.86,-31.26 0,-12.14 4.27,-22.64 12.86,-31.46 8.57,-8.82 18.92,-13.26 31.08,-13.26 12.4,0 22.95,4.42 31.67,13.26 8.72,8.84 13.06,19.32 13.06,31.46 0,12.14 -4.35,22.57 -13.06,31.26 -8.71,8.69 -19.29,13.06 -31.67,13.06zm608.02 -8.69l-81.53 0 -292.07 -452.37c-7.39,-11.35 -13.45,-23.23 -18.2,-35.63l-2.37 0.01c2.1,12.14 3.17,38.11 3.17,77.96l0 410.02 -66.48 -0.01 0 -567.52 86.28 0 284.16 445.24c11.88,18.48 19.53,31.13 22.95,38l1.59 0c-2.65,-16.36 -3.96,-44.19 -3.96,-83.5l0 -399.74 66.48 0 0 567.53 -0.02 0.01zm438.24 0l-300.78 0 0 -567.53 288.12 -0.01 0 60.16 -221.62 0.01 0 188.78 205.01 0 0 59.76 -205.01 -0.01 0 198.67 234.3 0.01 0 60.16 -0.02 0zm433.5 -507.37l-163.85 0 0 507.37 -66.48 0 0 -507.37 -163.45 0 0 -60.16 393.78 -0.01 0 60.16 0 0.01zm674.64 483.62c-41.94,22.16 -94.19,33.25 -156.73,33.25 -80.74,0 -145.38,-25.99 -193.92,-77.96 -48.56,-51.97 -72.82,-120.18 -72.82,-204.6 0,-90.76 27.3,-164.11 81.92,-220.04 54.62,-55.93 123.88,-83.91 207.77,-83.91 53.83,0 98.41,7.79 133.77,23.36l0 70.85c-40.64,-22.68 -85.49,-34.04 -134.57,-34.04 -65.17,0 -118.01,21.77 -158.49,65.3 -40.51,43.53 -60.75,101.7 -60.75,174.54 0,69.13 18.92,124.19 56.79,165.24 37.86,41.04 87.52,61.54 149.01,61.54 56.99,0 106.33,-12.67 148.01,-38l0 64.47 0.01 0zm264.89 33.24c-59.89,0 -107.73,-18.92 -143.46,-56.79 -35.76,-37.87 -53.62,-88.05 -53.62,-150.59 0,-68.07 18.61,-121.23 55.8,-159.49 37.19,-38.26 87.46,-57.38 150.79,-57.38 60.42,0 107.58,18.61 141.49,55.8 33.89,37.21 50.86,88.77 50.86,154.74 0,64.64 -18.27,116.42 -54.82,155.34 -36.55,38.92 -85.57,58.38 -147.04,58.38l0 -0.01zm4.75 -369.64c-41.69,0 -74.68,14.18 -98.94,42.55 -24.28,28.37 -36.42,67.48 -36.42,117.34 0,48.01 12.27,85.88 36.81,113.58 24.54,27.7 57.38,41.56 98.55,41.56 41.94,0 74.2,-13.58 96.77,-40.77 22.57,-27.19 33.84,-65.82 33.84,-115.96 0,-50.66 -11.27,-89.71 -33.84,-117.14 -22.57,-27.43 -54.82,-41.17 -96.77,-41.17l0 0.01zm500.78 20.58c-11.35,-8.71 -27.71,-13.06 -49.07,-13.06 -27.71,0 -50.86,13.06 -69.47,39.18 -18.61,26.12 -27.91,61.75 -27.91,106.86l0 206.59 -64.89 0 0 -405.26 64.89 0 0 83.5 1.59 0c9.23,-28.5 23.36,-50.73 42.35,-66.68 18.99,-15.95 40.23,-23.95 63.72,-23.95 16.89,0 29.81,1.86 38.78,5.54l0 67.27 0.01 0.01zm384.82 153.17l-286.14 0c1.05,45.11 13.19,79.95 36.42,104.48 23.21,24.54 55.13,36.81 95.77,36.81 45.65,0 87.59,-15.03 125.85,-45.11l0 60.96c-35.63,25.84 -82.71,38.78 -141.29,38.78 -57.25,0 -102.24,-18.4 -134.95,-55.21 -32.72,-36.81 -49.07,-88.59 -49.07,-155.34 0,-63.06 17.87,-114.45 53.62,-154.15 35.74,-39.7 80.15,-59.56 133.17,-59.56 53.02,0 94.06,17.15 123.09,51.45 29.01,34.3 43.53,81.92 43.53,142.87l0 34.02zm-66.5 -55.03c-0.28,-37.47 -9.3,-66.61 -27.12,-87.46 -17.82,-20.85 -42.55,-31.26 -74.2,-31.26 -30.62,0 -56.59,10.96 -77.96,32.84 -21.37,21.88 -34.56,50.53 -39.57,85.88l218.85 0zm749.71 -725.93l-18.42 0 0 1363.16 18.42 -0.01 0 -1363.16 0 0.01zm1539.86 996.48l-33.93 0 -131.99 -446.43c-6.61,-22.9 -10.35,-41.5 -11.16,-55.85l-1.66 0c-0.83,12.14 -5.1,30.49 -12.82,55.02l-140.68 447.26 -33.94 0 -176.25 -593.32 45.92 0 135.3 475.41c6.06,21.52 10.35,39.03 12.82,52.56l1.67 -0.01c1.66,-10.21 6.48,-27.72 14.48,-52.56l146.47 -475.41 20.68 0.01 134.47 475.41c6.34,22.07 10.61,39.59 12.82,52.56l1.66 -0.01c1.38,-7.72 3.57,-16.54 6.61,-26.49l139.02 -501.48 44.27 0.01 -173.77 593.32 0.01 0zm266.09 -530.43c-8.27,0 -15.58,-3.04 -21.92,-9.1 -6.36,-6.06 -9.52,-13.8 -9.52,-23.17 0,-9.1 3.24,-16.49 9.73,-22.14 6.48,-5.66 13.72,-8.47 21.72,-8.47 8.55,0 16.06,2.76 22.55,8.27 6.48,5.53 9.73,12.97 9.73,22.34 0,8.82 -3.17,16.41 -9.52,22.75 -6.34,6.36 -13.93,9.52 -22.75,9.52l-0.02 0zm-18.62 530.43l0 -423.68 38.05 0 0 423.68 -38.05 0zm446.5 0l0 -246.6c0,-101.78 -36.69,-152.67 -110.07,-152.67 -40.82,0 -74.35,14.98 -100.54,44.89 -26.21,29.93 -39.31,66.96 -39.31,111.1l0 243.29 -38.05 -0.01 0 -423.68 38.05 0 0 76.96 1.66 0c30.89,-58.19 79.16,-87.3 144.81,-87.3 45.78,0 80.81,15.25 105.09,45.72 24.26,30.49 36.42,74 36.42,130.53l0 257.77 -38.06 0zm451.04 0l0 -76.96 -1.66 0c-13.78,26.77 -34.17,47.99 -61.23,63.72 -27.02,15.73 -57.51,23.58 -91.42,23.58 -52.13,0 -94.68,-19.03 -127.64,-57.11 -32.97,-38.06 -49.44,-90.61 -49.44,-157.65 0,-68.4 18,-123.77 53.99,-166.12 35.99,-42.33 82.67,-63.52 140.06,-63.52 63.46,0 108.68,26.07 135.71,78.2l1.65 0 0 -271.4 38.06 0.01 0 627.26 -38.08 -0.01zm0 -257.76c0,-39.44 -12.49,-72.89 -37.41,-100.34 -24.96,-27.45 -58.58,-41.17 -100.76,-41.17 -44.41,0 -81.09,17.04 -110.07,51.1 -28.96,34.08 -43.44,80.89 -43.44,140.46 0,58.49 13.04,103.64 39.11,135.51 26.07,31.87 59.65,47.78 100.74,47.78 48.26,0 85.64,-14.96 112.11,-44.89 26.49,-29.93 39.72,-66.41 39.72,-109.44l0 -79.01zm328.6 268.1c-61.78,0 -110.69,-20.34 -146.67,-61.03 -36.01,-40.67 -54.01,-93.58 -54.01,-158.68 0,-70.33 18.81,-125.37 56.48,-165.09 37.63,-39.72 87.22,-59.57 148.73,-59.57 60.4,0 108.13,19.73 143.15,59.17 35.02,39.46 52.56,94.06 52.56,163.86 0,65.93 -17.87,119.31 -53.59,160.12 -35.7,40.82 -84.59,61.23 -146.65,61.23l0 -0.01zm2.89 -409.61c-49.92,0 -89.71,16.84 -119.37,50.47 -29.64,33.66 -44.47,80.41 -44.47,140.26 0,55.45 14.48,99.99 43.44,133.64 28.96,33.65 68.54,50.47 118.74,50.47 51.04,0 90.34,-16.54 117.91,-49.64 27.57,-33.1 41.37,-79.03 41.37,-137.77 0,-60.4 -13.72,-106.75 -41.17,-139.02 -27.43,-32.27 -66.24,-48.41 -116.46,-48.41l0.01 0zm646.34 399.27l-35.59 0 -92.27 -319.42c-2.49,-8.82 -4.7,-20.69 -6.61,-35.59l-2.07 0c-0.55,6.36 -3.32,17.94 -8.27,34.76l-103.43 320.25 -35.59 0 -127.84 -423.68 42.2 0 98.48 338.04c2.49,8.82 4.4,20.69 5.78,35.59l3.32 0c0.55,-7.99 3.17,-19.86 7.87,-35.59l107.58 -338.04 26.06 0 95.99 338.04c2.21,8.01 4.14,19.86 5.78,35.59l3.32 0c0,-7.99 2.34,-19.86 7.04,-35.59l100.54 -338.04 39.31 0 -131.6 423.68zm177.14 -18.62l0 -45.92c14.33,12.42 31.72,22.22 52.13,29.38 20.41,7.18 38.06,10.76 52.96,10.76 66.46,0 99.71,-27.17 99.71,-81.51 0,-18.75 -7.29,-34.76 -21.92,-47.99 -14.63,-13.23 -38.33,-26.89 -71.16,-40.97 -40.54,-17.65 -69.02,-35.92 -85.44,-54.82 -16.43,-18.88 -24.63,-41.85 -24.63,-68.89 0,-34.48 13.17,-62.34 39.53,-83.58 26.34,-21.24 58.8,-31.85 97.43,-31.85 36.42,0 67.59,7.44 93.51,22.34l0 43.03c-31.44,-20.41 -63.99,-30.62 -97.65,-30.62 -27.87,0 -50.33,7.24 -67.44,21.72 -17.11,14.48 -25.66,33.31 -25.66,56.48 0,20.13 5.38,36.47 16.14,49.04 10.76,12.56 34.48,26.97 71.16,43.23 44.14,19.86 74.48,38.28 91.02,55.24 16.54,16.96 24.83,39.51 24.83,67.64 0,33.66 -12.64,61.43 -37.86,83.37 -25.26,21.92 -60.07,32.9 -104.48,32.9 -40.8,-0.04 -74.86,-9.69 -102.18,-28.99l0 0.01zm1477.09 18.62l0 -593.32 40.97 0 0 556.09 237.9 0 0 37.23 -278.87 0zm383.19 -530.43c-8.27,0 -15.58,-3.04 -21.92,-9.1 -6.36,-6.06 -9.52,-13.8 -9.52,-23.17 0,-9.1 3.24,-16.49 9.73,-22.14 6.48,-5.66 13.71,-8.47 21.72,-8.47 8.55,0 16.06,2.76 22.55,8.27 6.5,5.53 9.73,12.97 9.73,22.34 0,8.82 -3.17,16.41 -9.52,22.75 -6.36,6.36 -13.93,9.52 -22.75,9.52l-0.02 0zm-18.62 530.43l0 -423.68 38.06 0 0 423.68 -38.06 0zm446.49 0l0 -246.6c0,-101.78 -36.68,-152.67 -110.07,-152.67 -40.82,0 -74.33,14.98 -100.54,44.89 -26.21,29.93 -39.31,66.96 -39.31,111.1l0 243.29 -38.06 -0.01 0 -423.68 38.06 0 0 76.96 1.66 0c30.89,-58.19 79.17,-87.3 144.81,-87.3 45.78,0 80.83,15.25 105.09,45.72 24.26,30.49 36.42,74 36.42,130.53l0 257.77 -38.06 0zm429.95 0l0 -76.96 -1.66 0c-29.53,58.21 -75.03,87.3 -136.54,87.3 -100.14,0 -150.19,-63.02 -150.19,-189.09l0 -244.93 38.49 0 0 235.42c0,57.38 9.45,99.03 28.35,124.95 18.88,25.94 48.61,38.89 89.16,38.89 39.46,0 71.38,-14.48 95.77,-43.44 24.43,-28.96 36.62,-67.57 36.62,-115.85l0 -239.97 38.05 0 0 423.68 -38.05 0zm289.7 -207.71l138.19 207.7 -48.4 -0.01 -111.71 -178.74 -1.66 0 -14.9 23.58c-1.92,3.32 -4.27,7.04 -7.04,11.16l-93.51 143.98 -46.34 0.01 141.51 -206.87 -139.02 -216.82 44.69 0 94.33 151.84c12.14,19.58 19.45,31.72 21.92,36.42l1.66 0 21.11 -34.76 98.48 -153.5 44.69 0 -144 216.01zm1577.88 218.05c-83.85,0 -150.68,-27.85 -200.48,-83.58 -49.77,-55.71 -74.68,-128.12 -74.68,-217.22 0,-94.61 25.59,-170.39 76.76,-227.35 51.16,-56.96 121.01,-85.44 209.56,-85.44 80,0 144.73,27.37 194.27,82.12 49.52,54.77 74.26,126.55 74.26,215.36 0,98.2 -25.38,175.42 -76.13,231.7 -50.75,56.28 -118.59,84.41 -203.55,84.41l-0.01 0zm4.12 -576.36c-68.95,0 -125.71,24.96 -170.25,74.88 -44.56,49.92 -66.83,115.3 -66.83,196.11 0,81.66 21.11,146.67 63.31,195.08 42.2,48.41 98.48,72.62 168.81,72.62 73.37,0 131.43,-23.93 174.19,-71.79 42.76,-47.86 64.12,-114.54 64.12,-200.05 0,-83.85 -20.91,-149.28 -62.67,-196.33 -41.82,-46.99 -98.68,-70.52 -170.69,-70.52l0.01 0zm362.94 544.91l0 -46.75c42.48,27.04 85.51,40.54 129.09,40.54 46.35,0 81.51,-9.58 105.52,-28.76 24.01,-19.18 35.99,-46 35.99,-80.48 0,-30.34 -8.07,-54.54 -24.19,-72.62 -16.16,-18.05 -51.1,-42.68 -104.89,-73.85 -60.14,-35.02 -98.2,-64.34 -114.19,-87.92 -15.99,-23.58 -24,-50.82 -24,-81.72 0,-41.93 16.28,-77.52 48.82,-106.75 32.55,-29.23 75.99,-43.86 130.33,-43.86 35.31,0 70.61,5.93 105.92,17.79l0 43.03c-34.76,-15.73 -71.84,-23.58 -111.3,-23.58 -40.29,0 -72.19,10.21 -95.79,30.62 -23.56,20.41 -35.37,46.35 -35.37,77.79 0,30.34 8.07,54.49 24.21,72.41 16.12,17.94 50.95,42.35 104.47,73.24 55.45,31.44 92.34,59.37 110.69,83.78 18.33,24.41 27.5,52.48 27.5,84.2 0,45.52 -15.79,82.62 -47.36,111.3 -31.59,28.7 -76.21,43.03 -133.87,43.03 -20.41,0 -43.93,-3.17 -70.53,-9.52 -26.64,-6.36 -46.99,-13.67 -61.05,-21.94l0 0.02zm746.05 21.11l-136.54 -226.32c-8.55,-14.07 -15.86,-27.85 -21.92,-41.37l-2.06 0c-7.44,15.18 -15.31,28.96 -23.58,41.37l-139.02 226.32 -49.25 0 187.43 -299.14 -176.25 -294.18 49.25 0 132.82 223.01c6.89,11.59 14.07,24.83 21.52,39.72l1.65 -0.01 21.92 -39.72 131.99 -223.01 47.57 0.01 -177.91 293.36 182.06 299.97 -49.68 -0.01z"/>
  <g style="clip-path:url(#id0)">
   <image x="-37.42" y="10629.4" width="21000" height="6631.6" xlink:href="banner5_Images\banner5_ImgID1.jpg"/>
  </g>
 </g>
</svg>
