<?xml version="1.0" encoding="UTF-8"?>
<!DOCTYPE svg PUBLIC "-//W3C//DTD SVG 1.1//EN" "http://www.w3.org/Graphics/SVG/1.1/DTD/svg11.dtd">
<!-- Creator: CorelDRAW 2017 -->
<svg xmlns="http://www.w3.org/2000/svg" xml:space="preserve" width="46.8901mm" height="66.316mm" version="1.1" style="shape-rendering:geometricPrecision; text-rendering:geometricPrecision; image-rendering:optimizeQuality; fill-rule:evenodd; clip-rule:evenodd"
viewBox="0 0 4689.01 6631.6"
 xmlns:xlink="http://www.w3.org/1999/xlink"
 enable-background="new 0 0 1140 360">
 <defs>
  <style type="text/css">
   <![CDATA[
    .fil0 {fill:white}
   ]]>
  </style>
   <clipPath id="id0">
    <rect x="-0.61" y="-2.95" width="4689.01" height="1480.74"/>
   </clipPath>
 </defs>
 <g id="Слой_x0020_1">
  <metadata id="CorelCorpID_0Corel-Layer"/>
  <path class="fil0" d="M671.64 3046.45l-16.44 0 -13.43 -35.52 -53.73 0 -12.64 35.52 -16.53 0 48.6 -126.72 15.38 -0 48.79 126.72 0 0zm-34.73 -48.87l-19.88 -53.99c-0.65,-1.77 -1.3,-4.6 -1.94,-8.48l-0.35 -0c-0.59,3.59 -1.27,6.42 -2.03,8.48l-19.71 53.99 43.92 0zm44.92 43.74l0 -17.5c2,1.77 4.4,3.36 7.2,4.77 2.8,1.42 5.74,2.61 8.84,3.58 3.09,0.97 6.2,1.72 9.32,2.25 3.12,0.53 6.01,0.79 8.66,0.79 9.13,0 15.95,-1.69 20.46,-5.08 4.51,-3.39 6.76,-8.26 6.76,-14.63 0,-3.42 -0.75,-6.39 -2.25,-8.92 -1.5,-2.53 -3.58,-4.85 -6.23,-6.94 -2.65,-2.09 -5.79,-4.09 -9.41,-6.01 -3.62,-1.92 -7.53,-3.93 -11.71,-6.06 -4.42,-2.24 -8.54,-4.51 -12.37,-6.8 -3.83,-2.3 -7.16,-4.83 -9.99,-7.6 -2.83,-2.77 -5.06,-5.91 -6.67,-9.41 -1.62,-3.51 -2.43,-7.62 -2.43,-12.33 0,-5.77 1.27,-10.8 3.8,-15.07 2.53,-4.27 5.86,-7.79 9.99,-10.56 4.12,-2.77 8.82,-4.83 14.1,-6.19 5.27,-1.35 10.65,-2.03 16.13,-2.03 12.49,0 21.59,1.5 27.31,4.51l0 16.7c-7.48,-5.19 -17.09,-7.78 -28.81,-7.78 -3.24,0 -6.48,0.34 -9.72,1.02 -3.24,0.68 -6.13,1.78 -8.66,3.32 -2.53,1.53 -4.6,3.51 -6.19,5.92 -1.59,2.41 -2.38,5.36 -2.38,8.84 0,3.24 0.6,6.04 1.81,8.4 1.21,2.36 2.99,4.51 5.35,6.45 2.36,1.94 5.23,3.83 8.62,5.66 3.39,1.83 7.29,3.83 11.71,6.01 4.54,2.24 8.84,4.6 12.9,7.07 4.07,2.48 7.63,5.22 10.69,8.22 3.06,3 5.49,6.33 7.29,9.99 1.8,3.65 2.7,7.84 2.7,12.55 0,6.25 -1.22,11.53 -3.67,15.86 -2.45,4.33 -5.74,7.85 -9.9,10.56 -4.15,2.71 -8.94,4.67 -14.36,5.88 -5.42,1.21 -11.14,1.81 -17.14,1.81 -2,0 -4.48,-0.17 -7.42,-0.48 -2.95,-0.33 -5.95,-0.79 -9.01,-1.42 -3.06,-0.62 -5.96,-1.39 -8.7,-2.3 -2.74,-0.91 -4.94,-1.92 -6.59,-3.04l-0 -0zm114.38 -42.77l0 47.9 -14.84 0 0 -126.72 34.82 -0c13.55,0 24.05,3.3 31.5,9.9 7.45,6.6 11.18,15.9 11.18,27.92 0,12.02 -4.14,21.85 -12.42,29.52 -8.28,7.66 -19.45,11.49 -33.54,11.49l-16.71 0zm0 -65.39l0 51.96 15.55 0c10.25,0 18.07,-2.34 23.46,-7.02 5.39,-4.68 8.09,-11.29 8.09,-19.84 0,-16.73 -9.9,-25.1 -29.69,-25.1l-17.41 0zm87.07 115.23c-2.71,0 -5.02,-0.97 -6.94,-2.92 -1.92,-1.94 -2.87,-4.27 -2.87,-6.98 0,-2.71 0.95,-5.06 2.87,-7.02 1.91,-1.97 4.22,-2.96 6.94,-2.96 2.77,0 5.12,0.99 7.07,2.96 1.95,1.97 2.92,4.31 2.92,7.02 0,2.71 -0.97,5.04 -2.92,6.98 -1.94,1.94 -4.31,2.92 -7.07,2.92zm135.76 -1.94l-18.2 0 -65.22 -101.01c-1.65,-2.53 -3,-5.19 -4.06,-7.96l-0.53 0c0.47,2.71 0.71,8.51 0.71,17.41l0 91.55 -14.84 -0 0 -126.72 19.27 0 63.45 99.42c2.65,4.13 4.36,6.95 5.12,8.48l0.36 0c-0.59,-3.65 -0.88,-9.87 -0.88,-18.64l0 -89.26 14.84 0 0 126.72 -0 0zm97.85 0l-67.16 0 0 -126.72 64.33 -0 0 13.43 -49.48 0 0 42.15 45.78 0 0 13.34 -45.78 -0 0 44.36 52.32 0 0 13.43 -0 0zm96.79 -113.29l-36.59 0 0 113.29 -14.84 0 0 -113.29 -36.5 0 0 -13.43 87.93 -0 0 13.43 0 0zm150.64 107.99c-9.36,4.95 -21.03,7.42 -35,7.42 -18.03,0 -32.46,-5.8 -43.3,-17.41 -10.84,-11.6 -16.26,-26.83 -16.26,-45.68 0,-20.27 6.1,-36.64 18.29,-49.13 12.2,-12.49 27.66,-18.74 46.39,-18.74 12.02,0 21.97,1.74 29.87,5.22l0 15.82c-9.07,-5.06 -19.09,-7.6 -30.05,-7.6 -14.55,0 -26.35,4.86 -35.39,14.58 -9.05,9.72 -13.56,22.71 -13.56,38.97 0,15.44 4.22,27.73 12.68,36.9 8.45,9.16 19.54,13.74 33.27,13.74 12.73,0 23.74,-2.83 33.05,-8.48l0 14.4 0 0zm59.15 7.42c-13.37,0 -24.05,-4.22 -32.03,-12.68 -7.98,-8.46 -11.97,-19.66 -11.97,-33.62 0,-15.2 4.16,-27.07 12.46,-35.61 8.3,-8.54 19.53,-12.81 33.67,-12.81 13.49,0 24.02,4.16 31.59,12.46 7.57,8.31 11.36,19.82 11.36,34.55 0,14.43 -4.08,25.99 -12.24,34.69 -8.16,8.69 -19.11,13.04 -32.83,13.04l0 -0zm1.06 -82.54c-9.31,0 -16.68,3.17 -22.09,9.5 -5.42,6.33 -8.13,15.07 -8.13,26.2 0,10.72 2.74,19.18 8.22,25.36 5.48,6.19 12.81,9.28 22,9.28 9.36,0 16.57,-3.03 21.61,-9.1 5.04,-6.07 7.56,-14.7 7.56,-25.89 0,-11.31 -2.52,-20.03 -7.56,-26.16 -5.04,-6.12 -12.24,-9.19 -21.61,-9.19l0 0zm111.82 4.6c-2.53,-1.94 -6.19,-2.92 -10.96,-2.92 -6.19,0 -11.36,2.92 -15.51,8.75 -4.16,5.83 -6.23,13.79 -6.23,23.86l0 46.13 -14.49 0 0 -90.49 14.49 0 0 18.64 0.36 0c2.06,-6.36 5.22,-11.33 9.46,-14.89 4.24,-3.56 8.98,-5.35 14.23,-5.35 3.77,0 6.66,0.42 8.66,1.24l0 15.02 0 0zm85.92 34.2l-63.89 0c0.23,10.07 2.95,17.85 8.13,23.33 5.18,5.48 12.31,8.22 21.38,8.22 10.19,0 19.56,-3.36 28.1,-10.07l0 13.61c-7.96,5.77 -18.47,8.66 -31.55,8.66 -12.78,0 -22.83,-4.11 -30.13,-12.33 -7.31,-8.22 -10.96,-19.78 -10.96,-34.69 0,-14.08 3.99,-25.56 11.97,-34.42 7.98,-8.86 17.9,-13.3 29.74,-13.3 11.84,0 21,3.83 27.48,11.49 6.48,7.66 9.72,18.29 9.72,31.9l0 7.6zm-14.85 -12.29c-0.06,-8.37 -2.08,-14.87 -6.06,-19.53 -3.98,-4.66 -9.5,-6.98 -16.57,-6.98 -6.84,0 -12.64,2.45 -17.41,7.33 -4.77,4.89 -7.72,11.28 -8.84,19.18l48.87 0zm167.4 -162.09l-4.11 0 0 304.37 4.11 -0 0 -304.37 0 0zm343.83 222.5l-7.58 0 -29.47 -99.68c-1.48,-5.11 -2.31,-9.27 -2.49,-12.47l-0.37 0c-0.19,2.71 -1.14,6.81 -2.86,12.29l-31.41 99.87 -7.58 0 -39.35 -132.48 10.25 0 30.21 106.15c1.35,4.81 2.31,8.71 2.86,11.74l0.37 -0c0.37,-2.28 1.45,-6.19 3.23,-11.74l32.7 -106.15 4.62 0 30.03 106.15c1.42,4.93 2.37,8.84 2.86,11.74l0.37 -0c0.31,-1.72 0.8,-3.69 1.48,-5.91l31.04 -111.97 9.88 0 -38.8 132.48 0 0zm59.41 -118.44c-1.85,0 -3.48,-0.68 -4.89,-2.03 -1.42,-1.35 -2.13,-3.08 -2.13,-5.17 0,-2.03 0.72,-3.68 2.17,-4.94 1.45,-1.26 3.06,-1.89 4.85,-1.89 1.91,0 3.59,0.62 5.04,1.85 1.45,1.23 2.17,2.9 2.17,4.99 0,1.97 -0.71,3.66 -2.13,5.08 -1.42,1.42 -3.11,2.13 -5.08,2.13l-0 0zm-4.16 118.44l0 -94.6 8.5 0 0 94.6 -8.5 0zm99.7 0l0 -55.06c0,-22.73 -8.19,-34.09 -24.58,-34.09 -9.11,0 -16.6,3.34 -22.45,10.02 -5.85,6.68 -8.78,14.95 -8.78,24.81l0 54.32 -8.5 -0 0 -94.6 8.5 0 0 17.18 0.37 0c6.9,-12.99 17.68,-19.49 32.33,-19.49 10.22,0 18.04,3.41 23.47,10.21 5.42,6.81 8.13,16.52 8.13,29.15l0 57.56 -8.5 0zm100.71 0l0 -17.18 -0.37 0c-3.08,5.98 -7.63,10.72 -13.67,14.23 -6.03,3.51 -12.84,5.27 -20.41,5.27 -11.64,0 -21.14,-4.25 -28.5,-12.75 -7.36,-8.5 -11.04,-20.23 -11.04,-35.2 0,-15.27 4.02,-27.64 12.06,-37.09 8.04,-9.45 18.46,-14.18 31.27,-14.18 14.17,0 24.27,5.82 30.3,17.46l0.37 0 0 -60.6 8.5 0 0 140.06 -8.5 -0zm0 -57.55c0,-8.81 -2.79,-16.28 -8.35,-22.4 -5.57,-6.13 -13.08,-9.19 -22.5,-9.19 -9.92,0 -18.11,3.8 -24.58,11.41 -6.47,7.61 -9.7,18.06 -9.7,31.36 0,13.06 2.91,23.14 8.73,30.26 5.82,7.12 13.32,10.67 22.49,10.67 10.78,0 19.12,-3.34 25.03,-10.02 5.91,-6.68 8.87,-14.83 8.87,-24.44l0 -17.64zm73.37 59.86c-13.79,0 -24.72,-4.54 -32.75,-13.63 -8.04,-9.08 -12.06,-20.9 -12.06,-35.43 0,-15.7 4.2,-27.99 12.61,-36.86 8.4,-8.87 19.48,-13.3 33.21,-13.3 13.49,0 24.14,4.41 31.96,13.21 7.82,8.81 11.74,21 11.74,36.59 0,14.72 -3.99,26.64 -11.97,35.75 -7.97,9.11 -18.89,13.67 -32.74,13.67l0 -0zm0.65 -91.46c-11.15,0 -20.03,3.76 -26.65,11.27 -6.62,7.52 -9.93,17.95 -9.93,31.32 0,12.38 3.23,22.33 9.7,29.84 6.47,7.51 15.3,11.27 26.51,11.27 11.4,0 20.17,-3.69 26.33,-11.08 6.16,-7.39 9.24,-17.65 9.24,-30.76 0,-13.49 -3.06,-23.84 -9.19,-31.04 -6.12,-7.21 -14.79,-10.81 -26,-10.81l0 0zm144.32 89.15l-7.95 0 -20.6 -71.32c-0.56,-1.97 -1.05,-4.62 -1.48,-7.95l-0.46 0c-0.12,1.42 -0.74,4.01 -1.85,7.76l-23.09 71.51 -7.95 0 -28.54 -94.6 9.42 0 21.99 75.48c0.56,1.97 0.98,4.62 1.29,7.95l0.74 0c0.12,-1.78 0.71,-4.43 1.76,-7.95l24.02 -75.48 5.82 0 21.43 75.48c0.49,1.79 0.92,4.43 1.29,7.95l0.74 0c0,-1.78 0.52,-4.43 1.57,-7.95l22.45 -75.48 8.78 0 -29.38 94.6zm39.55 -4.16l0 -10.25c3.2,2.77 7.08,4.96 11.64,6.56 4.56,1.6 8.5,2.4 11.83,2.4 14.84,0 22.26,-6.07 22.26,-18.2 0,-4.19 -1.63,-7.76 -4.89,-10.72 -3.27,-2.95 -8.56,-6 -15.89,-9.15 -9.05,-3.94 -15.41,-8.02 -19.08,-12.24 -3.67,-4.22 -5.5,-9.34 -5.5,-15.38 0,-7.7 2.94,-13.92 8.83,-18.66 5.88,-4.74 13.13,-7.11 21.75,-7.11 8.13,0 15.09,1.66 20.88,4.99l0 9.61c-7.02,-4.56 -14.29,-6.84 -21.8,-6.84 -6.22,0 -11.24,1.62 -15.06,4.85 -3.82,3.23 -5.73,7.44 -5.73,12.61 0,4.49 1.2,8.14 3.6,10.95 2.4,2.8 7.7,6.02 15.89,9.65 9.86,4.43 16.63,8.55 20.32,12.33 3.69,3.79 5.54,8.82 5.54,15.1 0,7.52 -2.82,13.72 -8.45,18.62 -5.64,4.89 -13.41,7.35 -23.33,7.35 -9.11,-0.01 -16.72,-2.16 -22.82,-6.47l0 0zm329.81 4.16l0 -132.48 9.15 0 0 124.17 53.12 0 0 8.31 -62.27 0zm85.56 -118.44c-1.85,0 -3.48,-0.68 -4.89,-2.03 -1.42,-1.35 -2.13,-3.08 -2.13,-5.17 0,-2.03 0.72,-3.68 2.17,-4.94 1.45,-1.26 3.06,-1.89 4.85,-1.89 1.91,0 3.59,0.62 5.04,1.85 1.45,1.23 2.17,2.9 2.17,4.99 0,1.97 -0.71,3.66 -2.13,5.08 -1.42,1.42 -3.11,2.13 -5.08,2.13l-0 0zm-4.16 118.44l0 -94.6 8.5 0 0 94.6 -8.5 0zm99.7 0l0 -55.06c0,-22.73 -8.19,-34.09 -24.58,-34.09 -9.11,0 -16.6,3.34 -22.45,10.02 -5.85,6.68 -8.78,14.95 -8.78,24.81l0 54.32 -8.5 -0 0 -94.6 8.5 0 0 17.18 0.37 0c6.9,-12.99 17.68,-19.49 32.33,-19.49 10.22,0 18.05,3.41 23.47,10.21 5.42,6.81 8.13,16.52 8.13,29.15l0 57.56 -8.5 0zm96 0l0 -17.18 -0.37 0c-6.59,13 -16.75,19.49 -30.49,19.49 -22.36,0 -33.54,-14.07 -33.54,-42.22l0 -54.69 8.59 0 0 52.57c0,12.81 2.11,22.11 6.33,27.9 4.22,5.79 10.85,8.68 19.91,8.68 8.81,0 15.94,-3.23 21.38,-9.7 5.45,-6.47 8.18,-15.09 8.18,-25.87l0 -53.58 8.5 0 0 94.6 -8.5 0zm64.69 -46.38l30.86 46.38 -10.81 -0 -24.94 -39.91 -0.37 0 -3.33 5.27c-0.43,0.74 -0.95,1.57 -1.57,2.49l-20.88 32.15 -10.35 0 31.6 -46.19 -31.04 -48.41 9.98 0 21.06 33.9c2.71,4.37 4.34,7.08 4.89,8.13l0.37 0 4.71 -7.76 21.99 -34.27 9.98 0 -32.15 48.23zm352.32 48.69c-18.72,0 -33.64,-6.22 -44.76,-18.66 -11.11,-12.44 -16.68,-28.61 -16.68,-48.5 0,-21.13 5.71,-38.05 17.14,-50.76 11.42,-12.72 27.02,-19.08 46.79,-19.08 17.86,0 32.32,6.11 43.38,18.34 11.06,12.23 16.58,28.26 16.58,48.09 0,21.93 -5.67,39.17 -17,51.74 -11.33,12.57 -26.48,18.85 -45.45,18.85l-0 0zm0.92 -128.69c-15.4,0 -28.07,5.57 -38.01,16.72 -9.95,11.15 -14.92,25.74 -14.92,43.79 0,18.23 4.71,32.75 14.14,43.56 9.42,10.81 21.99,16.22 37.69,16.22 16.38,0 29.35,-5.34 38.89,-16.03 9.55,-10.69 14.32,-25.58 14.32,-44.67 0,-18.72 -4.67,-33.33 -13.99,-43.84 -9.34,-10.49 -22.03,-15.75 -38.11,-15.75l0 0zm81.04 121.67l0 -10.44c9.49,6.04 19.09,9.05 28.82,9.05 10.35,0 18.2,-2.14 23.56,-6.42 5.36,-4.28 8.04,-10.27 8.04,-17.97 0,-6.77 -1.8,-12.18 -5.4,-16.22 -3.61,-4.03 -11.41,-9.53 -23.42,-16.49 -13.43,-7.82 -21.93,-14.37 -25.5,-19.63 -3.57,-5.27 -5.36,-11.35 -5.36,-18.25 0,-9.36 3.64,-17.31 10.9,-23.84 7.27,-6.53 16.97,-9.79 29.1,-9.79 7.88,0 15.77,1.32 23.65,3.97l0 9.61c-7.76,-3.51 -16.04,-5.27 -24.85,-5.27 -9,0 -16.12,2.28 -21.39,6.84 -5.26,4.56 -7.9,10.35 -7.9,17.37 0,6.77 1.8,12.17 5.41,16.17 3.6,4.01 11.38,9.46 23.33,16.35 12.38,7.02 20.62,13.26 24.72,18.71 4.09,5.45 6.14,11.72 6.14,18.8 0,10.16 -3.53,18.45 -10.57,24.85 -7.05,6.41 -17.02,9.61 -29.89,9.61 -4.56,0 -9.81,-0.71 -15.75,-2.13 -5.95,-1.42 -10.49,-3.05 -13.63,-4.9l0 0zm166.58 4.71l-30.49 -50.53c-1.91,-3.14 -3.54,-6.22 -4.89,-9.24l-0.46 0c-1.66,3.39 -3.42,6.47 -5.27,9.24l-31.04 50.53 -11 0 41.85 -66.79 -39.35 -65.69 11 0 29.66 49.8c1.54,2.59 3.14,5.54 4.81,8.87l0.37 -0 4.89 -8.87 29.47 -49.8 10.62 0 -39.72 65.5 40.65 66.98 -11.09 -0z"/>
  <g style="clip-path:url(#id0)">
   <image x="-0.61" y="-2.95" width="4689.01" height="1480.74" xlink:href="banner6_Images\banner6_ImgID1.jpg"/>
  </g>
 </g>
</svg>
